<svg width="32" height="32" viewBox="0 0 32 32" fill="none" xmlns="http://www.w3.org/2000/svg">
<rect width="32" height="32" rx="16" fill="#F7F7F7"/>
<path d="M21.4189 16C21.4189 16.2302 21.2323 16.4168 21.0021 16.4168C20.7719 16.4168 20.5853 16.2302 20.5853 16C20.5853 15.7698 20.7719 15.5831 21.0021 15.5831C21.2323 15.5831 21.4189 15.7698 21.4189 16" stroke="#323232" stroke-width="1.5" stroke-linecap="round" stroke-linejoin="round"/>
<path d="M16.4169 16C16.4169 16.2302 16.2302 16.4168 16 16.4168C15.7698 16.4168 15.5832 16.2302 15.5832 16C15.5832 15.7698 15.7698 15.5831 16 15.5831C16.2302 15.5831 16.4169 15.7698 16.4169 16" stroke="#323232" stroke-width="1.5" stroke-linecap="round" stroke-linejoin="round"/>
<path d="M11.4148 16C11.4148 16.2302 11.2282 16.4168 10.998 16.4168C10.7677 16.4168 10.5811 16.2302 10.5811 16C10.5811 15.7698 10.7677 15.5831 10.998 15.5831C11.2282 15.5831 11.4148 15.7698 11.4148 16" stroke="#323232" stroke-width="1.5" stroke-linecap="round" stroke-linejoin="round"/>
</svg>
